<svg id="Background" xmlns="http://www.w3.org/2000/svg" width="1900" height="768.5" viewBox="0 0 1900 768.5">
  <line id="Line_5" data-name="Line 5" x1="200" transform="translate(200 182)" fill="none" stroke="#bfc0c1" stroke-miterlimit="10" stroke-width="1"/>
  <circle id="Ellipse_5197" data-name="Ellipse 5197" cx="25" cy="25" r="25" transform="translate(150 157)" fill="#eeeff1"/>
  <line id="Line_6" data-name="Line 6" x2="150" transform="translate(250 307)" fill="none" stroke="#bfc0c1" stroke-miterlimit="10" stroke-width="1"/>
  <line id="Line_7" data-name="Line 7" y2="275" transform="translate(300 150)" fill="none" stroke="#bfc0c1" stroke-miterlimit="10" stroke-width="1"/>
  <line id="Line_8" data-name="Line 8" x2="150" transform="translate(250 557)" fill="none" stroke="#bfc0c1" stroke-miterlimit="10" stroke-width="1"/>
  <line id="Line_9" data-name="Line 9" y1="293.5" transform="translate(125 475)" fill="none" stroke="#bfc0c1" stroke-miterlimit="10" stroke-width="1"/>
  <line id="Line_10" data-name="Line 10" x2="275" transform="translate(0 369)" fill="none" stroke="#bfc0c1" stroke-miterlimit="10" stroke-width="1"/>
  <line id="Line_11" data-name="Line 11" x2="275" transform="translate(1500 400)" fill="none" stroke="#bfc0c1" stroke-miterlimit="10" stroke-width="1"/>
  <line id="Line_12" data-name="Line 12" y2="200" transform="translate(1625)" fill="none" stroke="#f2ecf3" stroke-miterlimit="10" stroke-width="1"/>
  <line id="Line_14" data-name="Line 14" x1="225" transform="translate(1675 275)" fill="none" stroke="#bfc0c1" stroke-miterlimit="10" stroke-width="1"/>
  <line id="Line_15" data-name="Line 15" y2="525" transform="translate(1750 200)" fill="none" stroke="#c2bec0" stroke-miterlimit="10" stroke-width="1"/>
  <line id="Line_16" data-name="Line 16" x2="325" transform="translate(1500 575)" fill="none" stroke="#bfc0c1" stroke-miterlimit="10" stroke-width="1"/>
  <rect id="Rectangle_2292" data-name="Rectangle 2292" width="50" height="50" transform="translate(1775 375)" fill="#bfc0c1"/>
  <path id="Rectangle_2293" data-name="Rectangle 2293" d="M0,0H0A50,50,0,0,1,50,50v0a0,0,0,0,1,0,0H0a0,0,0,0,1,0,0V0A0,0,0,0,1,0,0Z" transform="translate(100 425)" fill="#bfc0c1"/>
  <rect id="Rectangle_2294" data-name="Rectangle 2294" width="25" height="25" rx="12.5" transform="translate(1662.5 262.5)" fill="#bfc0c1"/>
  <rect id="Rectangle_2129" data-name="Rectangle 2129" width="25" height="50" transform="translate(175 275)" fill="#eeeff1"/>
  <path id="Path_673" data-name="Path 673" d="M1425.053,1525.122h-25a12.5,12.5,0,0,0,25,0Z" transform="translate(-1225.053 -1200.122)" fill="#eeeff1"/>
  <path id="Path_673-2" data-name="Path 673" d="M1425.053,1525.122h-25a12.5,12.5,0,0,0,25,0Z" transform="translate(1600.053 1800.622) rotate(180)" fill="#eeeff1"/>
</svg>
