<svg xmlns="http://www.w3.org/2000/svg" width="154.546" height="151.386" viewBox="0 0 154.546 151.386">
  <g id="Group_7" data-name="Group 7" transform="translate(-799.677 -82.5)">
    <g id="Group_5" data-name="Group 5" transform="translate(800 90.844)">
      <line id="Line_7" data-name="Line 7" y2="35.76" transform="translate(119.202 23.84)" fill="none" stroke="#0aa5a5" stroke-miterlimit="10" stroke-width="0.646"/>
      <line id="Line_8" data-name="Line 8" x1="95.361" transform="translate(11.92 119.202)" fill="none" stroke="#0aa5a5" stroke-miterlimit="10" stroke-width="0.646"/>
      <line id="Line_9" data-name="Line 9" y2="71.521" transform="translate(131.122 59.601)" fill="none" stroke="#0aa5a5" stroke-miterlimit="10" stroke-width="0.646"/>
      <line id="Line_10" data-name="Line 10" x2="35.76" transform="translate(107.281 71.521)" fill="none" stroke="#0aa5a5" stroke-miterlimit="10" stroke-width="0.646"/>
      <line id="Line_11" data-name="Line 11" x2="47.681" transform="translate(35.76 95.361)" fill="none" stroke="#0aa5a5" stroke-miterlimit="10" stroke-width="0.646"/>
      <line id="Line_12" data-name="Line 12" y2="35.76" transform="translate(95.361 47.681)" fill="none" stroke="#0aa5a5" stroke-miterlimit="10" stroke-width="0.646"/>
      <path id="Path_14" data-name="Path 14" d="M975,200" transform="translate(-891.559 -152.319)" fill="none" stroke="#0aa5a5" stroke-miterlimit="10" stroke-width="0.646"/>
      <path id="Path_15" data-name="Path 15" d="M975,400" transform="translate(-891.559 -256.958)" fill="none" stroke="#0aa5a5" stroke-miterlimit="10" stroke-width="0.646"/>
      <line id="Line_13" data-name="Line 13" x2="107.281" transform="translate(0 59.601)" fill="none" stroke="#0aa5a5" stroke-miterlimit="10" stroke-width="0.646"/>
      <line id="Line_14" data-name="Line 14" y2="59.601" transform="translate(23.84 11.92)" fill="none" stroke="#0aa5a5" stroke-miterlimit="10" stroke-width="0.646"/>
      <line id="Line_15" data-name="Line 15" y2="71.521" transform="translate(0 0)" fill="none" stroke="#0aa5a5" stroke-miterlimit="10" stroke-width="0.646"/>
      <line id="Line_16" data-name="Line 16" y1="48.903" x2="0.132" transform="translate(71.389 0)" fill="none" stroke="#0aa5a5" stroke-miterlimit="10" stroke-width="0.5"/>
    </g>
    <rect id="Rectangle_60" data-name="Rectangle 60" width="11.92" height="11.92" transform="translate(847.681 186.206)" fill="#ef0b1e"/>
    <rect id="Rectangle_61" data-name="Rectangle 61" width="11.92" height="11.92" transform="translate(847.681 138.525)" fill="#0aa5a5"/>
    <rect id="Rectangle_62" data-name="Rectangle 62" width="11.92" height="11.92" transform="translate(859.601 138.525)" fill="#00ccd1"/>
    <rect id="Rectangle_63" data-name="Rectangle 63" width="11.92" height="23.808" transform="translate(895.361 114.652)" fill="#ef0b1e"/>
    <path id="Rectangle_64" data-name="Rectangle 64" d="M11.92,0h0a0,0,0,0,1,0,0V11.92a0,0,0,0,1,0,0H0a0,0,0,0,1,0,0v0A11.92,11.92,0,0,1,11.92,0Z" transform="translate(847.681 198.126)" fill="#00ccd1"/>
    <rect id="Rectangle_65" data-name="Rectangle 65" width="11.92" height="11.92" transform="translate(859.601 198.126)" fill="#00ccd1"/>
    <rect id="Rectangle_66" data-name="Rectangle 66" width="11.92" height="11.92" transform="translate(800 114.685)" fill="#ef0b1e"/>
    <path id="Rectangle_67" data-name="Rectangle 67" d="M11.92,0h0a0,0,0,0,1,0,0V11.92a0,0,0,0,1,0,0H0a0,0,0,0,1,0,0v0A11.92,11.92,0,0,1,11.92,0Z" transform="translate(800 126.605)" fill="#00ccd1"/>
    <rect id="Rectangle_68" data-name="Rectangle 68" width="11.92" height="11.92" transform="translate(811.953 126.54)" fill="#00ccd1"/>
    <path id="Rectangle_69" data-name="Rectangle 69" d="M0,0H0A23.84,23.84,0,0,1,23.84,23.84v0a0,0,0,0,1,0,0H0a0,0,0,0,1,0,0V0A0,0,0,0,1,0,0Z" transform="translate(847.681 162.365)" fill="#bfc0c1"/>
    <path id="Rectangle_70" data-name="Rectangle 70" d="M0,0H0A23.84,23.84,0,0,1,23.84,23.84v0a0,0,0,0,1,0,0H0a0,0,0,0,1,0,0V0A0,0,0,0,1,0,0Z" transform="translate(895.361 138.525) rotate(180)" fill="#00ccd1"/>
    <path id="Rectangle_71" data-name="Rectangle 71" d="M0,0H0A23.84,23.84,0,0,1,23.84,23.84v0a0,0,0,0,1,0,0h0A23.84,23.84,0,0,1,0,0V0A0,0,0,0,1,0,0Z" transform="translate(847.681 138.46) rotate(180)" fill="#1a2a3a"/>
    <path id="Path_16" data-name="Path 16" d="M836.925,161.92A11.92,11.92,0,0,0,825.01,150v23.84A11.92,11.92,0,0,0,836.925,161.92Z" transform="translate(-13.085 -35.315)" fill="#ef0b1e"/>
    <path id="Path_17" data-name="Path 17" d="M911.915,161.92a11.92,11.92,0,0,0,11.92-11.915h-23.84A11.92,11.92,0,0,0,911.915,161.92Z" transform="translate(-52.317 -35.318)" fill="#1a2a3a"/>
    <path id="Path_18" data-name="Path 18" d="M1036.925,161.921A11.92,11.92,0,0,0,1025.01,150v23.84A11.92,11.92,0,0,0,1036.925,161.921Z" transform="translate(-117.724 -35.316)" fill="#f4455a"/>
    <path id="Path_19" data-name="Path 19" d="M961.921,161.915A11.92,11.92,0,0,0,973.841,150H950A11.92,11.92,0,0,0,961.921,161.915Z" transform="translate(-78.48 -35.315)" fill="#0aa5a5"/>
    <path id="Path_20" data-name="Path 20" d="M911.915,175.005a11.921,11.921,0,0,0-11.922,11.913l23.84,0A11.92,11.92,0,0,0,911.915,175.005Z" transform="translate(-52.315 -48.398)" fill="#ef0b1e"/>
    <path id="Path_21" data-name="Path 21" d="M911.923,261.927a11.92,11.92,0,0,0,11.923-11.914l-23.84-.005A11.921,11.921,0,0,0,911.923,261.927Z" transform="translate(-52.322 -87.639)" fill="#eeeff1"/>
    <path id="Path_22" data-name="Path 22" d="M923.834,236.929a11.92,11.92,0,1,0-23.84-.006v0l23.84.005Z" transform="translate(-52.316 -74.558)" fill="#00ccd1"/>
    <path id="Path_23" data-name="Path 23" d="M924.414,243.5a5.96,5.96,0,1,0-11.92,0v0l11.92,0Z" transform="translate(-58.856 -81.114)" fill="#0aa5a5"/>
    <path id="Path_24" data-name="Path 24" d="M912.494,250.045a5.96,5.96,0,1,0,11.92,0v0l-11.92,0Z" transform="translate(-58.856 -87.656)" fill="#bfc0c1"/>
    <g id="Group_6" data-name="Group 6" transform="translate(883.441 162.365)">
      <path id="Path_25" data-name="Path 25" d="M1025,311.92A11.92,11.92,0,0,0,1036.92,300H1025Z" transform="translate(-1001.16 -276.16)" fill="none"/>
      <path id="Path_26" data-name="Path 26" d="M1036.92,286.92A11.92,11.92,0,0,0,1025,275v11.92Z" transform="translate(-1001.16 -263.08)" fill="none"/>
      <path id="Path_27" data-name="Path 27" d="M1000,286.92h11.92V275A11.92,11.92,0,0,0,1000,286.92Z" transform="translate(-988.08 -263.08)" fill="none"/>
      <path id="Path_28" data-name="Path 28" d="M1000,300a11.92,11.92,0,0,0,11.92,11.92V300Z" transform="translate(-988.08 -276.16)" fill="none"/>
      <path id="Path_29" data-name="Path 29" d="M986.92,300H975a23.84,23.84,0,0,0,23.84,23.84V311.92A11.92,11.92,0,0,1,986.92,300Z" transform="translate(-975 -276.16)" fill="#ef0b1e"/>
      <path id="Path_30" data-name="Path 30" d="M998.84,261.92V250A23.84,23.84,0,0,0,975,273.84h11.92A11.92,11.92,0,0,1,998.84,261.92Z" transform="translate(-975 -250)" fill="#f4455a"/>
      <path id="Path_31" data-name="Path 31" d="M1025,250v11.92a11.92,11.92,0,0,1,11.92,11.92h11.92A23.841,23.841,0,0,0,1025,250Z" transform="translate(-1001.16 -250)" fill="#1a2a3a"/>
      <path id="Path_32" data-name="Path 32" d="M1025,311.92v11.92A23.841,23.841,0,0,0,1048.84,300h-11.92A11.92,11.92,0,0,1,1025,311.92Z" transform="translate(-1001.16 -276.16)" fill="#f4455a"/>
    </g>
    <rect id="Rectangle_72" data-name="Rectangle 72" width="11.92" height="11.92" transform="translate(919.202 198.126)" fill="#ef0b1e"/>
    <rect id="Rectangle_73" data-name="Rectangle 73" width="11.92" height="11.92" transform="translate(919.222 174.286)" fill="#00ccd1"/>
    <path id="Rectangle_74" data-name="Rectangle 74" d="M11.92,0h0a0,0,0,0,1,0,0V11.92a0,0,0,0,1,0,0H0a0,0,0,0,1,0,0v0A11.92,11.92,0,0,1,11.92,0Z" transform="translate(919.202 186.206)" fill="#1a2a3a"/>
    <path id="Path_33" data-name="Path 33" d="M1050.045,300a5.96,5.96,0,0,0,11.919,0Z" transform="translate(-130.822 -113.794)" fill="#00ccd1"/>
    <path id="Path_34" data-name="Path 34" d="M1061.964,293.462h0a5.96,5.96,0,1,0-11.92,0h0c0,.008,0,.016,0,.024h11.919C1061.964,293.478,1061.964,293.47,1061.964,293.462Z" transform="translate(-130.821 -107.256)" fill="#f4455a"/>
    <path id="Path_35" data-name="Path 35" d="M1061.964,343.409h0a5.96,5.96,0,1,0-11.92,0h0c0,.008,0,.016,0,.024h11.919C1061.964,343.425,1061.964,343.417,1061.964,343.409Z" transform="translate(-130.821 -133.388)" fill="#f4455a"/>
    <rect id="Rectangle_75" data-name="Rectangle 75" width="11.92" height="11.92" transform="translate(919.202 162.365)" fill="#0aa5a5"/>
    <path id="Path_36" data-name="Path 36" d="M1050.045,250a5.96,5.96,0,0,0,11.919,0Z" transform="translate(-130.822 -87.635)" fill="#00ccd1"/>
    <path id="Path_37" data-name="Path 37" d="M936.92,311.92A11.92,11.92,0,0,0,925,300v11.92Z" transform="translate(-65.399 -113.794)" fill="#ef0b1e"/>
    <path id="Path_38" data-name="Path 38" d="M925,325v11.92A11.92,11.92,0,0,0,936.92,325Z" transform="translate(-65.399 -126.874)" fill="#f4455a"/>
    <text id="_1_2" data-name="1/2" transform="translate(867.364 85.5)" font-size="3" font-family="Roboto-Light, Roboto" font-weight="300"><tspan x="0" y="0">1/2</tspan></text>
    <text id="_14pt" data-name="14pt" transform="translate(946.223 163.329)" font-size="4" font-family="Roboto-Light, Roboto" font-weight="300"><tspan x="0" y="0">14pt</tspan></text>
    <text id="T" transform="translate(803.398 208.469)" font-size="2" font-family="Roboto-Light, Roboto" font-weight="300" text-decoration="line-through"><tspan x="0" y="0">T</tspan></text>
    <text id="_50_" data-name="50%" transform="translate(822.292 169.688)" font-size="4" font-family="Roboto-Light, Roboto" font-weight="300"><tspan x="0" y="0">50%</tspan></text>
  </g>
</svg>
