<svg xmlns="http://www.w3.org/2000/svg" viewBox="0 0 123 44.427"><path d="M7.46094,39.715a6.12457,6.12457,0,0,1-4.36035-1.39941A5.43621,5.43621,0,0,1,1.62012,34.171V24.57726H5.09424v8.57618a4.176,4.176,0,0,0,.53515,2.43945,2.14012,2.14012,0,0,0,1.82276.71094,2.15241,2.15241,0,0,0,1.83154-.71094,4.176,4.176,0,0,0,.53516-2.43945V24.57726H13.293V34.171a5.44735,5.44735,0,0,1-1.47608,4.14454A6.10806,6.10806,0,0,1,7.46094,39.715Z" fill="#1a2a3a"/><path d="M20.3584,39.715a9.0449,9.0449,0,0,1-3.45166-.666,9.20389,9.20389,0,0,1-1.26026-.62988,6.21761,6.21761,0,0,1-.87744-.62988l1.73731-2.916q.35082.26075.79638.54883a8.30318,8.30318,0,0,0,.9585.53125,6.46757,6.46757,0,0,0,1.0708.39551,4.2158,4.2158,0,0,0,1.125.15332,2.5102,2.5102,0,0,0,.92725-.15332,1.22433,1.22433,0,0,0,.81884-1.22363,1.35834,1.35834,0,0,0-.19335-.7334,2.02531,2.02531,0,0,0-.58936-.58106,7.927,7.927,0,0,0-1.00391-.5625q-.60717-.29149-1.43505-.66992a7.88755,7.88755,0,0,1-1.14307-.65723,4.7867,4.7867,0,0,1-.92725-.83691,3.55124,3.55124,0,0,1-.61181-1.03516,3.46055,3.46055,0,0,1-.21631-1.24218,4.07792,4.07792,0,0,1,.356-1.67383,4.57274,4.57274,0,0,1,1.01661-1.44043,4.89839,4.89839,0,0,1,1.584-1.01172,5.4098,5.4098,0,0,1,2.04785-.374,7.29014,7.29014,0,0,1,1.61524.18945,9.70331,9.70331,0,0,1,1.58838.50391,6.50689,6.50689,0,0,1,1.30517.71093l-1.40381,2.7627a6.05948,6.05948,0,0,0-.94043-.52637,5.73261,5.73261,0,0,0-1.03955-.35547,4.51684,4.51684,0,0,0-1.04394-.126,2.33469,2.33469,0,0,0-.90479.15722,1.316,1.316,0,0,0-.57617.44141,1.10768,1.10768,0,0,0-.20215.66113.94767.94767,0,0,0,.1167.48145,1.10765,1.10765,0,0,0,.35547.36035,4.42847,4.42847,0,0,0,.59863.31933q.35963.1626.84619.36036,1.09791.47607,1.96192.93164a6.86056,6.86056,0,0,1,1.45361.99414,3.61369,3.61369,0,0,1,.89063,1.2373,4.11334,4.11334,0,0,1,.30175,1.64258,4.229,4.229,0,0,1-2.66406,4.1084A7.426,7.426,0,0,1,20.3584,39.715Z" fill="#1a2a3a"/><path d="M28.70117,39.42687V24.57726h8.53174v3.042H32.166V30.463h4.85107v3.042H32.166v2.87988h5.06689v3.042Z" fill="#1a2a3a"/><path d="M40.65283,39.42687V24.57726h5.48975a6.18754,6.18754,0,0,1,2.68213.544,4.09561,4.09561,0,0,1,1.77295,1.57031,4.66261,4.66261,0,0,1,.62988,2.48438,5.15688,5.15688,0,0,1-.36426,1.97558A4.25314,4.25314,0,0,1,49.81445,32.672a4.65151,4.65151,0,0,1-1.66455.97656l4.82373,5.77832H48.57275L44.45068,34.0714h-.333v5.35547Zm3.46485-8.23535h.90918a3.88113,3.88113,0,0,0,1.395-.21972,1.785,1.785,0,0,0,.85937-.65333,1.81883,1.81883,0,0,0,.29248-1.04394,1.6915,1.6915,0,0,0-.65723-1.43945A3.09612,3.09612,0,0,0,45.02686,27.34h-.90918Z" fill="#1a2a3a"/><path d="M63.08008,39.715a9.04484,9.04484,0,0,1-3.45117-.666,9.20331,9.20331,0,0,1-1.26026-.62988,6.21761,6.21761,0,0,1-.87744-.62988l1.73731-2.916q.35082.26075.79638.54883a8.30318,8.30318,0,0,0,.9585.53125,6.45664,6.45664,0,0,0,1.07129.39551,4.20508,4.20508,0,0,0,1.125.15332,2.51289,2.51289,0,0,0,.92676-.15332,1.22714,1.22714,0,0,0,.81933-1.22363,1.35826,1.35826,0,0,0-.19336-.7334,2.02739,2.02739,0,0,0-.58984-.58106,7.89258,7.89258,0,0,0-1.00391-.5625q-.60643-.29149-1.43506-.66992a7.888,7.888,0,0,1-1.14306-.65723,4.7864,4.7864,0,0,1-.92725-.83691,3.55149,3.55149,0,0,1-.61182-1.03516,3.46076,3.46076,0,0,1-.2163-1.24218,4.07792,4.07792,0,0,1,.356-1.67383,4.57287,4.57287,0,0,1,1.0166-1.44043,4.89855,4.89855,0,0,1,1.584-1.01172,5.408,5.408,0,0,1,2.04785-.374,7.29005,7.29005,0,0,1,1.61523.18945,9.69333,9.69333,0,0,1,1.58887.50391,6.51563,6.51563,0,0,1,1.30469.71093l-1.4043,2.7627a6.04942,6.04942,0,0,0-.93945-.52637,5.7376,5.7376,0,0,0-1.04-.35547,4.51686,4.51686,0,0,0-1.04395-.126,2.32866,2.32866,0,0,0-.90429.15722,1.30763,1.30763,0,0,0-.57617.44141,1.10838,1.10838,0,0,0-.20313.66113.94287.94287,0,0,0,.11719.48145,1.11235,1.11235,0,0,0,.35547.36035,4.45793,4.45793,0,0,0,.59863.31933c.23926.1084.52246.22852.84668.36036q1.09717.47607,1.96094.93164A6.87716,6.87716,0,0,1,67.54,32.173a3.60705,3.60705,0,0,1,.89062,1.2373,4.11317,4.11317,0,0,1,.30176,1.64258,4.22723,4.22723,0,0,1-2.66406,4.1084A7.42516,7.42516,0,0,1,63.08008,39.715Z" fill="#1a2a3a"/><path d="M72.26074,39.42687V27.62805h-3.4834V24.57726H79.21777v3.05079H75.73438V39.42687Z" fill="#1a2a3a"/><path d="M86.97559,39.715a7.20567,7.20567,0,0,1-2.916-.59375,7.458,7.458,0,0,1-2.38574-1.65137,7.86977,7.86977,0,0,1,0-10.917,7.46062,7.46062,0,0,1,2.38574-1.65234,7.45742,7.45742,0,0,1,5.832,0,7.4672,7.4672,0,0,1,2.38477,1.65234,7.86792,7.86792,0,0,1,0,10.917,7.46457,7.46457,0,0,1-2.38477,1.65137A7.209,7.209,0,0,1,86.97559,39.715Zm0-3.34766a3.60384,3.60384,0,0,0,1.5166-.31543,3.43,3.43,0,0,0,1.1875-.8955,4.1382,4.1382,0,0,0,.77441-1.377,5.83611,5.83611,0,0,0,0-3.53711,4.13816,4.13816,0,0,0-.77441-1.377,3.42994,3.42994,0,0,0-1.1875-.89551,3.80368,3.80368,0,0,0-3.03321,0,3.43,3.43,0,0,0-1.1875.89551,4.13816,4.13816,0,0,0-.77441,1.377,5.83632,5.83632,0,0,0,0,3.53711,4.1382,4.1382,0,0,0,.77441,1.377,3.43012,3.43012,0,0,0,1.1875.8955A3.60385,3.60385,0,0,0,86.97559,36.3673Z" fill="#1a2a3a"/><path d="M97.0918,39.42687V24.57726H102.582a6.18529,6.18529,0,0,1,2.68164.544,4.09685,4.09685,0,0,1,1.77344,1.57031,4.66234,4.66234,0,0,1,.62891,2.48438,5.16606,5.16606,0,0,1-.36329,1.97558,4.27812,4.27812,0,0,1-1.04882,1.52051,4.66223,4.66223,0,0,1-1.665.97656l4.82324,5.77832h-4.40039l-4.12207-5.35547h-.333v5.35547Zm3.46484-8.23535h.90918a3.88577,3.88577,0,0,0,1.39551-.21972,1.78954,1.78954,0,0,0,.85937-.65333,1.82225,1.82225,0,0,0,.292-1.04394,1.69276,1.69276,0,0,0-.65723-1.43945,3.09615,3.09615,0,0,0-1.88965-.49512h-.90918Z" fill="#1a2a3a"/><path d="M112.66992,39.42687V32.74914l-5.498-8.17188h4.18457l3.042,4.66114,3.05078-4.66114H121.625l-5.49023,8.17188v6.67773Z" fill="#1a2a3a"/><path d="M23.897,7.029,26.478,9.61l-2.581,2.579-2.581-2.58Zm6.957,5.23-6.957,6.958-6.951-6.956L9.99,19.217.383,9.61,9.99.002l6.093,6.094L9.99,12.189,7.41,9.61l3.436-3.443-.863-.863-4.3,4.305,4.3,4.3L23.897.001,37.81,13.913l.863-.862L31.717,6.094,37.81,0l9.608,9.608L44.766,12.26,37.81,5.303l-.861.863,6.956,6.956L37.81,19.217ZM28.201,9.61l-4.3-4.305-4.3,4.305,4.3,4.3Z" fill="#ef0b1e"/></svg>
