<svg id="logo" xmlns="http://www.w3.org/2000/svg" width="123" height="44.427" viewBox="0 0 123 44.427">
  <text id="USER_STORY" data-name="USER STORY" transform="translate(0 39.427)" fill="#1a2a3a" font-size="18" font-family="Spartan-Black, Spartan" font-weight="800"><tspan x="0" y="0">USER STORY</tspan></text>
  <path id="Path_1" data-name="Path 1" d="M73.251,22.375l2.581,2.581-2.581,2.579L70.67,24.955Zm6.957,5.23-6.957,6.958L66.3,27.607l-6.956,6.956-9.607-9.607,9.607-9.608,6.093,6.094-6.093,6.093-2.58-2.579L60.2,21.513l-.863-.863-4.3,4.305,4.3,4.3L73.251,15.347,87.164,29.259l.863-.862L81.071,21.44l6.093-6.094,9.608,9.608L94.12,27.606l-6.956-6.957-.861.863,6.956,6.956-6.095,6.095Zm-2.653-2.649-4.3-4.305-4.3,4.305,4.3,4.3Z" transform="translate(-49.354 -15.346)" fill="#ef0b1e"/>
</svg>
