<svg xmlns="http://www.w3.org/2000/svg" width="155.115" height="30" viewBox="0 0 155.115 30">
  <g id="Group_540" data-name="Group 540" transform="translate(-353.421 -6209.999)">
    <path id="Path_1153" data-name="Path 1153" d="M36.85,11.292l3.97,3.97-3.97,3.97-3.969-3.97Zm10.7,8.048-10.7,10.7-10.7-10.7-10.7,10.7L.664,15.261,15.447.479l9.378,9.378-9.378,9.378-3.97-3.97,5.3-5.3L15.448,8.643,8.826,15.265l6.622,6.622L36.853.483,58.261,21.888l1.325-1.326-10.7-10.7L58.262.48,73.045,15.262l-4.08,4.08-10.7-10.7L56.937,9.965l10.7,10.7-9.378,9.378Zm-4.082-4.079L36.85,8.639l-6.622,6.622,6.622,6.622Z" transform="translate(352.757 6209.709)" fill="#1e3b51"/>
    <path id="Path_1154" data-name="Path 1154" d="M205.319,12.826a4.908,4.908,0,0,1-3.512-1.135,4.427,4.427,0,0,1-1.191-3.359V.555H203.4V7.507a3.4,3.4,0,0,0,.431,1.977,1.739,1.739,0,0,0,1.484.576,1.72,1.72,0,0,0,1.47-.576,3.4,3.4,0,0,0,.432-1.977V.555h2.8V8.332a4.428,4.428,0,0,1-1.19,3.359,4.91,4.91,0,0,1-3.513,1.135" transform="translate(231.629 6209.664)"/>
    <path id="Path_1155" data-name="Path 1155" d="M232,12.489a7.241,7.241,0,0,1-1.5-.149,7.1,7.1,0,0,1-1.281-.394,7.961,7.961,0,0,1-1.016-.511,4.8,4.8,0,0,1-.708-.507l1.4-2.364q.29.212.646.445a6.463,6.463,0,0,0,.769.43,5.233,5.233,0,0,0,.864.321,3.4,3.4,0,0,0,.907.124,2.05,2.05,0,0,0,.751-.124,1.022,1.022,0,0,0,.486-.372,1.055,1.055,0,0,0,.171-.613,1.141,1.141,0,0,0-.156-.606,1.612,1.612,0,0,0-.476-.474,6.083,6.083,0,0,0-.809-.453q-.49-.233-1.157-.54a5.651,5.651,0,0,1-.922-.529,3.851,3.851,0,0,1-.744-.682,2.974,2.974,0,0,1-.494-.842,2.774,2.774,0,0,1-.178-1,3.3,3.3,0,0,1,.29-1.357,3.784,3.784,0,0,1,.82-1.167A3.906,3.906,0,0,1,230.938.3a4.344,4.344,0,0,1,1.651-.3,5.851,5.851,0,0,1,1.3.153,7.825,7.825,0,0,1,1.281.408,5.039,5.039,0,0,1,1.045.577l-1.132,2.24a4.653,4.653,0,0,0-.747-.427,4.521,4.521,0,0,0-.838-.288,3.663,3.663,0,0,0-.839-.1,1.893,1.893,0,0,0-.733.128,1.059,1.059,0,0,0-.468.357.9.9,0,0,0-.163.537.8.8,0,0,0,.094.394.834.834,0,0,0,.287.291,3.4,3.4,0,0,0,.486.252q.293.128.671.3.9.38,1.593.751a5.782,5.782,0,0,1,1.165.8,2.916,2.916,0,0,1,.719,1,3.339,3.339,0,0,1,.247,1.335A3.6,3.6,0,0,1,236,10.742a3.56,3.56,0,0,1-1.586,1.3,5.96,5.96,0,0,1-2.409.449" transform="translate(215.347 6210)"/>
    <path id="Path_1156" data-name="Path 1156" d="M255.975,12.593V.555h6.887V3.028h-4.086v2.3h3.912V7.793h-3.912V10.12h4.086v2.473Z" transform="translate(198.093 6209.664)"/>
    <path id="Path_1157" data-name="Path 1157" d="M280.424,12.593V.555h4.435A4.959,4.959,0,0,1,287.021,1a3.279,3.279,0,0,1,1.426,1.273,3.8,3.8,0,0,1,.5,2.013,4.292,4.292,0,0,1-.286,1.6,3.352,3.352,0,0,1-.842,1.233,3.884,3.884,0,0,1-1.346.8l3.89,4.677h-3.542l-3.338-4.348h-.261v4.348Zm2.8-6.676h.733a3.1,3.1,0,0,0,1.125-.179,1.441,1.441,0,0,0,.694-.529,1.481,1.481,0,0,0,.235-.846,1.367,1.367,0,0,0-.529-1.16,2.491,2.491,0,0,0-1.524-.4h-.733Z" transform="translate(183.283 6209.664)"/>
    <path id="Path_1158" data-name="Path 1158" d="M202.233,56.906a7.247,7.247,0,0,1-1.5-.149,7.1,7.1,0,0,1-1.281-.394,7.95,7.95,0,0,1-1.016-.511,4.776,4.776,0,0,1-.708-.507l1.4-2.364q.29.212.646.445a6.389,6.389,0,0,0,.769.43,5.243,5.243,0,0,0,.863.321,3.4,3.4,0,0,0,.907.124,2.05,2.05,0,0,0,.751-.124,1.023,1.023,0,0,0,.486-.372,1.058,1.058,0,0,0,.17-.613,1.138,1.138,0,0,0-.156-.606,1.612,1.612,0,0,0-.475-.474,6.023,6.023,0,0,0-.809-.452q-.49-.234-1.157-.54a5.668,5.668,0,0,1-.922-.529,3.822,3.822,0,0,1-.744-.682,2.964,2.964,0,0,1-.494-.842,2.774,2.774,0,0,1-.178-1,3.3,3.3,0,0,1,.291-1.357,3.776,3.776,0,0,1,.82-1.167,3.9,3.9,0,0,1,1.274-.821,4.348,4.348,0,0,1,1.651-.3,5.854,5.854,0,0,1,1.3.153,7.831,7.831,0,0,1,1.281.408,5.051,5.051,0,0,1,1.045.577l-1.132,2.24a4.638,4.638,0,0,0-.747-.427,4.49,4.49,0,0,0-.838-.288,3.64,3.64,0,0,0-.839-.1,1.9,1.9,0,0,0-.733.128,1.059,1.059,0,0,0-.468.357.9.9,0,0,0-.163.537.8.8,0,0,0,.094.394.845.845,0,0,0,.287.292,3.464,3.464,0,0,0,.486.252q.293.128.671.3.9.38,1.593.752a5.763,5.763,0,0,1,1.164.8,2.909,2.909,0,0,1,.719,1,3.343,3.343,0,0,1,.246,1.335,3.6,3.6,0,0,1-.563,2.032,3.559,3.559,0,0,1-1.586,1.3,5.96,5.96,0,0,1-2.409.449" transform="translate(233.38 6183.093)"/>
    <path id="Path_1159" data-name="Path 1159" d="M223.628,57.009V47.445h-2.816V44.972h8.419v2.473h-2.809v9.565Z" transform="translate(219.395 6182.757)"/>
    <path id="Path_1160" data-name="Path 1160" d="M248.759,56.907a5.773,5.773,0,0,1-2.351-.482,5.988,5.988,0,0,1-1.923-1.338,6.4,6.4,0,0,1,0-8.85,6.007,6.007,0,0,1,1.923-1.338,5.984,5.984,0,0,1,4.7,0,6.007,6.007,0,0,1,1.923,1.338,6.4,6.4,0,0,1,0,8.85,5.989,5.989,0,0,1-1.923,1.338,5.774,5.774,0,0,1-2.351.482m-.007-2.714a2.943,2.943,0,0,0,1.23-.252,2.728,2.728,0,0,0,.958-.722,3.377,3.377,0,0,0,.624-1.12,4.782,4.782,0,0,0,0-2.875,3.381,3.381,0,0,0-.624-1.12,2.727,2.727,0,0,0-.958-.722,2.943,2.943,0,0,0-1.23-.252,2.9,2.9,0,0,0-1.219.252,2.736,2.736,0,0,0-.954.722,3.382,3.382,0,0,0-.624,1.12,4.782,4.782,0,0,0,0,2.875,3.378,3.378,0,0,0,.624,1.12,2.737,2.737,0,0,0,.954.722,2.9,2.9,0,0,0,1.219.252" transform="translate(206.123 6183.093)"/>
    <path id="Path_1161" data-name="Path 1161" d="M278.712,57.01V44.972h4.435a4.958,4.958,0,0,1,2.162.441,3.278,3.278,0,0,1,1.426,1.273,3.808,3.808,0,0,1,.5,2.013,4.293,4.293,0,0,1-.286,1.6,3.35,3.35,0,0,1-.842,1.233,3.883,3.883,0,0,1-1.346.8l3.89,4.677h-3.542l-3.339-4.348h-.261V57.01Zm2.8-6.676h.733a3.1,3.1,0,0,0,1.125-.179,1.44,1.44,0,0,0,.694-.529,1.482,1.482,0,0,0,.236-.846,1.368,1.368,0,0,0-.53-1.16,2.49,2.49,0,0,0-1.524-.4h-.733Z" transform="translate(184.32 6182.756)"/>
    <path id="Path_1162" data-name="Path 1162" d="M303.783,57.009V51.6l-4.435-6.624h3.375l2.453,3.771,2.46-3.771h3.375L306.577,51.6v5.413Z" transform="translate(171.819 6182.757)"/>
    <path id="Path_1163" data-name="Path 1163" d="M357.206,50.991a6.019,6.019,0,1,1-6.019-6.019,6.019,6.019,0,0,1,6.019,6.019" transform="translate(144.062 6182.756)"/>
    <rect id="Rectangle_2325" data-name="Rectangle 2325" width="2.566" height="12.038" transform="translate(505.97 6227.729)"/>
  </g>
</svg>
